{"title":"Dharmatma (1975) Dvdrip Xvid Badababa","uid":8217895,"size":940980204,"categoryP":"video","categoryS":"movies","magnet":"?xt=urn:btih:4ec00c5749168962caee299de842e9c95041d41e&amp;dn=Dharmatma+%281975%29+Dvdrip+Xvid+Badababa&amp;tr=udp%3A%2F%2Ftracker.openbittorrent.com%3A80&amp;tr=udp%3A%2F%2Fopen.demonii.com%3A1337&amp;tr=udp%3A%2F%2Ftracker.coppersurfer.tk%3A6969&amp;tr=udp%3A%2F%2Fexodus.desync.com%3A6969","seeders":2,"leechers":2,"uploader":"badababa","files":11,"time":1362387642,"description":"Dharmatma (1975) Dvdrip Xvid \n\n\nRipped by : Badababa\n\nMovie Imformation\n\nGeneral\n\nComplete name : Dharmatma\nYear :1975\nGenres : Action | Thriller\nLanguage :Hindi\nIMDb :http://www.imdb.com/title/tt0361505/\nFormat/Inf : Audio Video Interleave\nFile size : 896 MiB\nDuration : 2h 42mn\nOverall bit rate : 770 Kbps\n\nVideo\n\nFormat : MPEG-4 Visual\nFormat profile : Advanced Simple@L5\nCodec ID : XVID\nCodec ID/Hint : XviD\nDuration : 2h 42mn\nBit rate : 633 Kbps\nWidth : 416 pixels\nHeight : 320 pixels\nDisplay aspect ratio : 4:3\nFrame rate : 29.970 fps\nStream size : 737 MiB (82%)\nWriting library : XviD 1.2.1\n\nAudio\n\nLanguage : Hindi\nFormat : MPEG Audio\nFormat version : Version 1\nFormat profile : Layer 3\nMode : Joint stereo\nMode extension : MS Stereo\nCodec ID/Hint : MP3\nDuration : 2h 42mn\nBit rate mode : Constant\nBit rate : 128 Kbps\nChannel(s) : 2 channels\nSampling rate : 48.0 KHz\nStream size : 149 MiB (17%)\n\nStoryline\n\n\nWealthy, powerful and influential Seth Dharamdas leads a financially secure life in a palatial mansion. He is known to come to the aid of all people who are beyond any hope of assistance, and this leads to him being known as &quot;Dharmatma&quot;. But Seth Dharamdas does have a number of skeletons in his closet, and a parallel life as a gangster. The only person Dharamdas hates and fears is none other than his very own son, Ranbir, who has sworn that he will never compromise with his father's dark career, and threatens to expose him. Dharamdas has never conceded surrender or defeat at the hands of any mortal, and will never even consider to do so - even if this means the death of Ranbir. Songs include &quot;Tere cheherey mein woh jadoo hai...&quot;; &quot;Tum ne kisise kabhi pyar kiya hai, pyar bhara dil kisiko diya hai...&quot;.\n\n\nCast\n\n\nPrem Nath :-Dharamdas 'Dharmatma'\nFeroz Khan\nHema Malini\nRekha\nDanny Denzongpa\nFarida Jalal\nRanjeet\nSudhir\nImtiaz Khan\nMadan Puri\nJeevan\nSatyendra Kapoor\nHelen\nIftekhar\nFaryal\n\nScreens\n &lt;a href=&quot;\nhttp://i69.servimg.com/u/f69/13/88/29/14/1_110.png&quot; rel=&quot;nofollow&quot; target=&quot;_NEW&quot;&gt;\nhttp://i69.servimg.com/u/f69/13/88/29/14/1_110.png&lt;/a&gt; &lt;a href=&quot;\nhttp://i69.servimg.com/u/f69/13/88/29/14/1_210.jpg&quot; rel=&quot;nofollow&quot; target=&quot;_NEW&quot;&gt;\nhttp://i69.servimg.com/u/f69/13/88/29/14/1_210.jpg&lt;/a&gt; &lt;a href=&quot;\nhttp://i69.servimg.com/u/f69/13/88/29/14/1_310.jpg&quot; rel=&quot;nofollow&quot; target=&quot;_NEW&quot;&gt;\nhttp://i69.servimg.com/u/f69/13/88/29/14/1_310.jpg&lt;/a&gt; &lt;a href=&quot;\nhttp://i69.servimg.com/u/f69/13/88/29/14/1_410.png&quot; rel=&quot;nofollow&quot; target=&quot;_NEW&quot;&gt;\nhttp://i69.servimg.com/u/f69/13/88/29/14/1_410.png&lt;/a&gt; &lt;a href=&quot;\nhttp://i69.servimg.com/u/f69/13/88/29/14/1_510.png&quot; rel=&quot;nofollow&quot; target=&quot;_NEW&quot;&gt;\nhttp://i69.servimg.com/u/f69/13/88/29/14/1_510.png&lt;/a&gt; &lt;a href=&quot;\nhttp://i69.servimg.com/u/f69/13/88/29/14/dharma10.jpg&quot; rel=&quot;nofollow&quot; target=&quot;_NEW&quot;&gt;\nhttp://i69.servimg.com/u/f69/13/88/29/14/dharma10.jpg&lt;/a&gt;","torrent":{"xt":"urn:btih:4ec00c5749168962caee299de842e9c95041d41e","amp;dn":"Dharmatma+%281975%29+Dvdrip+Xvid+Badababa","amp;tr":["udp%3A%2F%2Ftracker.openbittorrent.com%3A80","udp%3A%2F%2Fopen.demonii.com%3A1337","udp%3A%2F%2Ftracker.coppersurfer.tk%3A6969","udp%3A%2F%2Fexodus.desync.com%3A6969"],"infoHash":"4ec00c5749168962caee299de842e9c95041d41e","infoHashBuffer":{"type":"Buffer","data":[78,192,12,87,73,22,137,98,202,238,41,157,232,66,233,201,80,65,212,30]},"announce":[],"urlList":[]}}